<?xml version="1.0" encoding="UTF-8" standalone="no"?>
<svg
   xmlns:dc="http://purl.org/dc/elements/1.1/"
   xmlns:cc="http://creativecommons.org/ns#"
   xmlns:rdf="http://www.w3.org/1999/02/22-rdf-syntax-ns#"
   xmlns:svg="http://www.w3.org/2000/svg"
   xmlns="http://www.w3.org/2000/svg"
   xmlns:sodipodi="http://sodipodi.sourceforge.net/DTD/sodipodi-0.dtd"
   xmlns:inkscape="http://www.inkscape.org/namespaces/inkscape"
   sodipodi:docname="廃.svg"
   inkscape:version="1.0rc1 (09960d6f05, 2020-04-09)"
   id="svg8"
   version="1.1"
   viewBox="0 0 135.46666 135.46667"
   height="512"
   width="512"
   inkscape:export-filename="C:\Users\user\Pictures\廃.png"
   inkscape:export-xdpi="96"
   inkscape:export-ydpi="96">
  <defs
     id="defs2" />
  <sodipodi:namedview
     inkscape:window-maximized="1"
     inkscape:window-y="-8"
     inkscape:window-x="1912"
     inkscape:window-height="1017"
     inkscape:window-width="1920"
     inkscape:snap-page="true"
     inkscape:bbox-paths="true"
     inkscape:snap-object-midpoints="true"
     inkscape:bbox-nodes="true"
     inkscape:snap-bbox="true"
     units="px"
     showgrid="false"
     inkscape:document-rotation="0"
     inkscape:current-layer="layer1"
     inkscape:document-units="mm"
     inkscape:cy="279.57892"
     inkscape:cx="238.17254"
     inkscape:zoom="1.4"
     inkscape:pageshadow="2"
     inkscape:pageopacity="0.0"
     borderopacity="1.0"
     bordercolor="#666666"
     pagecolor="#ffffff"
     id="base"
     inkscape:snap-smooth-nodes="false"
     inkscape:object-nodes="false" />
  <metadata
     id="metadata5">
    <rdf:RDF>
      <cc:Work
         rdf:about="">
        <dc:format>image/svg+xml</dc:format>
        <dc:type
           rdf:resource="http://purl.org/dc/dcmitype/StillImage" />
        <dc:title />
      </cc:Work>
    </rdf:RDF>
  </metadata>
  <g
     id="layer1"
     inkscape:groupmode="layer"
     inkscape:label="レイヤー 1">
    <rect
       y="0"
       x="0"
       height="135.46666"
       width="135.46666"
       id="rect842"
       style="fill:#000000;fill-opacity:1;stroke-width:0.529167;stroke-linecap:round;stroke-linejoin:round;paint-order:fill markers stroke" />
    <path
       d="m 86.753813,61.870456 q 6.290189,5.554287 16.474427,8.640003 -3.594416,0.925745 -5.990696,3.394295 -15.27627,-7.714291 -22.76463,-27.154323 l 1.49767,-0.925745 q 1.79721,4.628575 4.193479,8.331436 l 7.48836,-7.71429 2.695789,2.468571 q 3.594421,2.160003 -2.096729,1.851436 l -7.18882,4.628574 q 2.39628,3.394284 4.79255,5.554287 l 8.08742,-8.331436 3.294911,2.468571 q 3.594416,2.160004 -2.39628,1.851436 z m -29.354348,0.925745 q 5.391619,-5.862865 8.087419,-11.417163 H 47.814365 v -1.851426 h 17.372989 l 2.09674,-3.085716 4.79255,3.702862 q 2.99534,1.542858 -2.09674,1.851425 -9.884629,16.662883 -26.658549,23.760039 -1.7972,16.97145 -10.184159,25.302888 -1.79721,1.23429 -0.898631,-0.92575 7.488349,-11.41716 7.488349,-27.154319 V 38.727562 l 4.49301,2.777149 h 23.663209 v -9.565726 l 5.09208,0.925744 q 2.396269,1.542858 -1.19814,2.160004 v 6.48001 h 20.667911 l 4.492947,-4.628574 5.691189,4.319996 q 1.79726,1.542869 0,2.160004 H 43.620864 v 30.548617 q 6.29021,-4.011429 11.681829,-8.948582 -1.19814,0.308546 -1.797199,-2.468571 -1.19814,-3.702872 -2.99535,-6.171443 -1.19813,-1.234291 0.599122,-0.925745 6.290219,3.394284 6.290219,7.405724 z m 21.566458,37.954339 q -3.594409,0 -3.594409,-3.702861 V 82.5448 h -9.58509 q -0.898631,18.20574 -23.962739,20.98289 -1.49767,0 -0.299509,-1.23429 19.769249,-4.628575 20.368319,-19.7486 H 46.616256 v -1.851436 h 15.575779 v -9.565727 h -5.69115 v -1.851426 h 22.165529 l 3.89394,-4.011439 4.79255,3.702861 q 1.79721,1.542858 0,2.160004 h -8.08742 v 9.565727 h 9.28556 l 3.89394,-4.011429 4.79256,3.702861 q 1.797158,1.542859 0,2.160004 h -17.97206 v 13.268588 q 0,1.234291 1.19813,1.234291 h 14.677159 q 1.497649,0 2.096771,-2.468581 l 1.19814,-6.480011 q 0.599226,-0.617092 0.898319,0 v 7.097156 q 0,1.234291 1.198137,2.160004 1.19814,0.925744 0,2.160003 -1.198137,1.23429 -3.294804,1.23429 z M 66.085954,71.127637 v 9.565727 h 9.28556 v -9.565727 z"
       style="font-size:7.38366px;line-height:1.25;font-family:'MS Mincho';-inkscape-font-specification:'MS Mincho';text-align:center;text-anchor:middle;fill:#ffffff;fill-opacity:1;stroke-width:2.82222222;stroke:none;stroke-opacity:1;stroke-miterlimit:4;stroke-dasharray:none;paint-order:stroke markers fill"
       id="path837"
       inkscape:connector-curvature="0" />
  </g>
</svg>
